<svg xmlns="http://www.w3.org/2000/svg" viewBox="0 0 80 72" width="80" height="72" fill="none">
  <!-- Fila 1 -->
  <rect x="4"  y="4"  width="8" height="8" rx="1.5" stroke="currentColor" stroke-width="1.2"/>
  <rect x="15" y="4"  width="8" height="8" rx="1.5" stroke="currentColor" stroke-width="1.2"/>
  <rect x="26" y="4"  width="8" height="8" rx="1.5" stroke="currentColor" stroke-width="1.2"/>
  <rect x="37" y="4"  width="8" height="8" rx="1.5" stroke="currentColor" stroke-width="1.2"/>
  <rect x="48" y="4"  width="8" height="8" rx="1.5" stroke="currentColor" stroke-width="1.2"/>
  <rect x="59" y="4"  width="8" height="8" rx="1.5" stroke="currentColor" stroke-width="1.2"/>
  <!-- Fila 2 -->
  <rect x="4"  y="16" width="8" height="8" rx="1.5" stroke="currentColor" stroke-width="1.2"/>
  <rect x="15" y="16" width="8" height="8" rx="1.5" stroke="currentColor" stroke-width="1.2"/>
  <rect x="26" y="16" width="8" height="8" rx="1.5" stroke="currentColor" stroke-width="1.2"/>
  <rect x="37" y="16" width="8" height="8" rx="1.5" stroke="currentColor" stroke-width="1.2"/>
  <rect x="48" y="16" width="8" height="8" rx="1.5" stroke="currentColor" stroke-width="1.2"/>
  <rect x="59" y="16" width="8" height="8" rx="1.5" stroke="currentColor" stroke-width="1.2"/>
  <!-- Fila 3 -->
  <rect x="4"  y="28" width="8" height="8" rx="1.5" stroke="currentColor" stroke-width="1.2"/>
  <rect x="15" y="28" width="8" height="8" rx="1.5" stroke="currentColor" stroke-width="1.2"/>
  <rect x="26" y="28" width="8" height="8" rx="1.5" stroke="currentColor" stroke-width="1.2"/>
  <rect x="37" y="28" width="8" height="8" rx="1.5" stroke="currentColor" stroke-width="1.2"/>
  <rect x="48" y="28" width="8" height="8" rx="1.5" stroke="currentColor" stroke-width="1.2"/>
  <rect x="59" y="28" width="8" height="8" rx="1.5" stroke="currentColor" stroke-width="1.2"/>
  <!-- Fila 4 -->
  <rect x="4"  y="40" width="8" height="8" rx="1.5" stroke="currentColor" stroke-width="1.2"/>
  <rect x="15" y="40" width="8" height="8" rx="1.5" stroke="currentColor" stroke-width="1.2"/>
  <rect x="26" y="40" width="8" height="8" rx="1.5" stroke="currentColor" stroke-width="1.2"/>
  <rect x="37" y="40" width="8" height="8" rx="1.5" stroke="currentColor" stroke-width="1.2"/>
  <rect x="48" y="40" width="8" height="8" rx="1.5" stroke="currentColor" stroke-width="1.2"/>
  <rect x="59" y="40" width="8" height="8" rx="1.5" stroke="currentColor" stroke-width="1.2"/>
  <!-- Escenario / pantalla -->
  <rect x="4" y="58" width="63" height="10" rx="2" stroke="currentColor" stroke-width="1.5"/>
</svg>
